<svg xmlns="http://www.w3.org/2000/svg" viewBox="0 0 24 24" fill="none">
  <path d="M12 2C7.58172 2 4 5.58172 4 10V19C4 20.6569 5.34315 22 7 22C7.63228 22 8.21952 21.7909 8.70773 21.4312L10.5858 19.5531C10.9609 19.1781 11.4696 18.9674 12 18.9674C12.5304 18.9674 13.0391 19.1781 13.4142 19.5531L15.2923 21.4312C15.7805 21.7909 16.3677 22 17 22C18.6569 22 20 20.6569 20 19V10C20 5.58172 16.4183 2 12 2Z" fill="#6366f1" stroke="#6366f1" stroke-width="1.5" stroke-linecap="round" stroke-linejoin="round"/>
  <circle cx="9" cy="10" r="1" fill="#ffffff"/>
  <circle cx="15" cy="10" r="1" fill="#ffffff"/>
</svg>

